<svg width="18" height="18" viewBox="0 0 18 18" fill="none" xmlns="http://www.w3.org/2000/svg">
<path d="M0 16.3125C0 17.2441 0.863839 18 1.92857 18H16.0714C17.1362 18 18 17.2441 18 16.3125V6.75H0V16.3125ZM12.8571 9.42188C12.8571 9.18984 13.0741 9 13.3393 9H14.9464C15.2116 9 15.4286 9.18984 15.4286 9.42188V10.8281C15.4286 11.0602 15.2116 11.25 14.9464 11.25H13.3393C13.0741 11.25 12.8571 11.0602 12.8571 10.8281V9.42188ZM12.8571 13.9219C12.8571 13.6898 13.0741 13.5 13.3393 13.5H14.9464C15.2116 13.5 15.4286 13.6898 15.4286 13.9219V15.3281C15.4286 15.5602 15.2116 15.75 14.9464 15.75H13.3393C13.0741 15.75 12.8571 15.5602 12.8571 15.3281V13.9219ZM7.71429 9.42188C7.71429 9.18984 7.93125 9 8.19643 9H9.80357C10.0687 9 10.2857 9.18984 10.2857 9.42188V10.8281C10.2857 11.0602 10.0687 11.25 9.80357 11.25H8.19643C7.93125 11.25 7.71429 11.0602 7.71429 10.8281V9.42188ZM7.71429 13.9219C7.71429 13.6898 7.93125 13.5 8.19643 13.5H9.80357C10.0687 13.5 10.2857 13.6898 10.2857 13.9219V15.3281C10.2857 15.5602 10.0687 15.75 9.80357 15.75H8.19643C7.93125 15.75 7.71429 15.5602 7.71429 15.3281V13.9219ZM2.57143 9.42188C2.57143 9.18984 2.78839 9 3.05357 9H4.66071C4.92589 9 5.14286 9.18984 5.14286 9.42188V10.8281C5.14286 11.0602 4.92589 11.25 4.66071 11.25H3.05357C2.78839 11.25 2.57143 11.0602 2.57143 10.8281V9.42188ZM2.57143 13.9219C2.57143 13.6898 2.78839 13.5 3.05357 13.5H4.66071C4.92589 13.5 5.14286 13.6898 5.14286 13.9219V15.3281C5.14286 15.5602 4.92589 15.75 4.66071 15.75H3.05357C2.78839 15.75 2.57143 15.5602 2.57143 15.3281V13.9219ZM16.0714 2.25H14.1429V0.5625C14.1429 0.253125 13.8536 0 13.5 0H12.2143C11.8607 0 11.5714 0.253125 11.5714 0.5625V2.25H6.42857V0.5625C6.42857 0.253125 6.13929 0 5.78571 0H4.5C4.14643 0 3.85714 0.253125 3.85714 0.5625V2.25H1.92857C0.863839 2.25 0 3.00586 0 3.9375V5.625H18V3.9375C18 3.00586 17.1362 2.25 16.0714 2.25Z" fill="#B3B3B3"/>
</svg>
