<svg width="112" height="32" viewBox="0 0 112 32" fill="none" xmlns="http://www.w3.org/2000/svg">
<path d="M8.61251 24.2324C6.99898 24.2324 5.55308 23.9825 4.27482 23.4827C2.99657 22.9828 1.96977 22.243 1.19444 21.2634C0.440056 20.2837 0.04191 19.104 0 17.7245H5.72072C5.80454 18.5042 6.08743 19.104 6.5694 19.5239C7.05136 19.9238 7.68002 20.1237 8.45535 20.1237C9.25164 20.1237 9.88029 19.9538 10.3413 19.6139C10.8023 19.254 11.0328 18.7641 11.0328 18.1443C11.0328 17.6245 10.8442 17.1946 10.467 16.8547C10.1108 16.5148 9.66026 16.2349 9.11543 16.015C8.59156 15.7951 7.83718 15.5451 6.85229 15.2652C5.42735 14.8454 4.26435 14.4255 3.36328 14.0056C2.46221 13.5858 1.68688 12.9659 1.03727 12.1462C0.387668 11.3265 0.0628651 10.2568 0.0628651 8.93721C0.0628651 6.97782 0.806768 5.4483 2.29457 4.34864C3.78238 3.22899 5.72072 2.66917 8.10959 2.66917C10.5404 2.66917 12.4997 3.22899 13.9875 4.34864C15.4753 5.4483 16.2716 6.98782 16.3764 8.9672H10.5613C10.5194 8.28741 10.2575 7.75758 9.77552 7.3777C9.29355 6.97782 8.67538 6.77788 7.921 6.77788C7.27139 6.77788 6.74752 6.94783 6.34937 7.28772C5.95123 7.60762 5.75215 8.07748 5.75215 8.69728C5.75215 9.37707 6.08743 9.9069 6.75799 10.2868C7.42856 10.6667 8.47631 11.0765 9.90125 11.5164C11.3262 11.9763 12.4787 12.4161 13.3588 12.836C14.2599 13.2559 15.0352 13.8657 15.6848 14.6654C16.3344 15.4652 16.6592 16.4948 16.6592 17.7545C16.6592 18.9541 16.3344 20.0437 15.6848 21.0234C15.0562 22.0031 14.1342 22.7829 12.9188 23.3627C11.7034 23.9425 10.268 24.2324 8.61251 24.2324Z" fill="white"/>
<path fill-rule="evenodd" clip-rule="evenodd" d="M25.342 9.65698C25.8659 8.87723 26.5888 8.24742 27.5108 7.76757C28.4329 7.28772 29.512 7.0478 30.7484 7.0478C32.1943 7.0478 33.504 7.39769 34.6775 8.09747C35.8509 8.79725 36.7729 9.79694 37.4435 11.0965C38.135 12.3961 38.4808 13.9057 38.4808 15.6251C38.4808 17.3446 38.135 18.8641 37.4435 20.1837C36.7729 21.4833 35.8509 22.493 34.6775 23.2127C33.504 23.9125 32.1943 24.2624 30.7484 24.2624C29.533 24.2624 28.4538 24.0225 27.5108 23.5426C26.5888 23.0628 25.8659 22.443 25.342 21.6832V32H19.967V7.28772H25.342V9.65698ZM33.0115 15.6251C33.0115 14.3455 32.6343 13.3458 31.88 12.6261C31.1465 11.8863 30.235 11.5164 29.1453 11.5164C28.0766 11.5164 27.1651 11.8863 26.4107 12.6261C25.6773 13.3658 25.3106 14.3755 25.3106 15.6551C25.3106 16.9347 25.6773 17.9444 26.4107 18.6842C27.1651 19.4239 28.0766 19.7938 29.1453 19.7938C30.214 19.7938 31.1256 19.4239 31.88 18.6842C32.6343 17.9244 33.0115 16.9047 33.0115 15.6251Z" fill="white"/>
<path fill-rule="evenodd" clip-rule="evenodd" d="M49.2845 24.2624C47.5662 24.2624 46.0155 23.9125 44.6325 23.2127C43.2704 22.513 42.1912 21.5133 41.3949 20.2137C40.6196 18.9141 40.2319 17.3946 40.2319 15.6551C40.2319 13.9356 40.6301 12.4261 41.4264 11.1265C42.2226 9.80694 43.3123 8.79725 44.6953 8.09747C46.0784 7.39769 47.629 7.0478 49.3474 7.0478C51.0657 7.0478 52.6163 7.39769 53.9994 8.09747C55.3824 8.79725 56.4721 9.80694 57.2684 11.1265C58.0646 12.4261 58.4628 13.9356 58.4628 15.6551C58.4628 17.3746 58.0542 18.8941 57.2369 20.2137C56.4406 21.5133 55.3405 22.513 53.9365 23.2127C52.5535 23.9125 51.0028 24.2624 49.2845 24.2624ZM49.2845 19.8238C50.3113 19.8238 51.1809 19.4639 51.8934 18.7441C52.6268 18.0244 52.9935 16.9947 52.9935 15.6551C52.9935 14.3155 52.6373 13.2858 51.9248 12.5661C51.2333 11.8463 50.3741 11.4864 49.3474 11.4864C48.2996 11.4864 47.43 11.8463 46.7385 12.5661C46.0469 13.2659 45.7012 14.2955 45.7012 15.6551C45.7012 16.9947 46.0365 18.0244 46.707 18.7441C47.3985 19.4639 48.2577 19.8238 49.2845 19.8238Z" fill="white"/>
<path d="M71.0898 19.6739V24.0225H68.3552C66.4064 24.0225 64.8871 23.5726 63.7975 22.6729C62.7078 21.7532 62.163 20.2637 62.163 18.2043V11.5464H60.0256V7.28772H62.163V3.209H67.538V7.28772H71.0584V11.5464H67.538V18.2643C67.538 18.7641 67.6637 19.124 67.9151 19.344C68.1666 19.5639 68.5857 19.6739 69.1724 19.6739H71.0898Z" fill="white"/>
<path d="M76.787 5.54827C75.844 5.54827 75.0687 5.28835 74.461 4.76851C73.8742 4.22868 73.5809 3.56889 73.5809 2.78913C73.5809 1.98938 73.8742 1.32959 74.461 0.809747C75.0687 0.269916 75.844 0 76.787 0C77.709 0 78.4634 0.269916 79.0501 0.809747C79.6578 1.32959 79.9617 1.98938 79.9617 2.78913C79.9617 3.56889 79.6578 4.22868 79.0501 4.76851C78.4634 5.28835 77.709 5.54827 76.787 5.54827Z" fill="white"/>
<path d="M79.4587 7.28772V24.0225H74.0838V7.28772H79.4587Z" fill="white"/>
<path d="M92.155 11.5464H89.2632V24.0225H83.8883V11.5464H81.9395V7.28772H83.8883V6.80787C83.8883 4.74852 84.5064 3.189 85.7428 2.12934C86.9791 1.04967 88.7917 0.509841 91.1806 0.509841C91.5788 0.509841 91.8721 0.519838 92.0607 0.539831V4.88847C91.0339 4.82849 90.311 4.96845 89.8919 5.30834C89.4728 5.64823 89.2632 6.25804 89.2632 7.13777V7.28772H92.155V11.5464Z" fill="white"/>
<path d="M112 7.28772V24.0225H106.625V21.7432C106.08 22.483 105.336 23.0828 104.393 23.5426C103.471 23.9825 102.445 24.2024 101.313 24.2024C99.9718 24.2024 98.7879 23.9225 97.7611 23.3627C96.7343 22.7829 95.938 21.9531 95.3722 20.8735C94.8064 19.7938 94.5235 18.5242 94.5235 17.0647V7.28772H99.867V16.3749C99.867 17.4945 100.171 18.3643 100.779 18.9841C101.386 19.6039 102.204 19.9138 103.23 19.9138C104.278 19.9138 105.106 19.6039 105.713 18.9841C106.321 18.3643 106.625 17.4945 106.625 16.3749V7.28772H112Z" fill="white"/>
</svg>
